# xmcd
#
# Track frame offsets: 
#        150
#        20645
#        39045
#        62723
#        76419
#        96828
#        113339
#        123851
#        142232
#        159887
#        177698
#        194161
#        216465
#        232108
#        252004
#
# Disc length: 3592 seconds
#
# Revision: 0
# Processed by: cddbd v1.5.2PL0 Copyright (c) Steve Scherf et al.
# Submitted via: ExactAudioCopyFreeDBPlugin 1.0
#
DISCID=d20e060f
DTITLE=Bobby Messano - Bad Movie
DYEAR=2017
DGENRE=blues
TTITLE0=Bad Movie
TTITLE1=Come to Your Senses
TTITLE2=Why Water a Dead Rose
TTITLE3=Road to Oblivion
TTITLE4=Unconventional Wisdom
TTITLE5=Too Good to Be True
TTITLE6=If the Phone Ain't Ringin' It's Me Not Callin'
TTITLE7=Never Too Late to Break a Bad Habit
TTITLE8=Water Under the Bridge
TTITLE9=You Left Me No Choice
TTITLE10=The Girl That Got Away
TTITLE11=I Thought We Had This
TTITLE12=We Need a Blessing
TTITLE13=Is It Too Much to Hope for a Miracle
TTITLE14=American Spring
EXTD=
EXTT0=
EXTT1=
EXTT2=
EXTT3=
EXTT4=
EXTT5=
EXTT6=
EXTT7=
EXTT8=
EXTT9=
EXTT10=
EXTT11=
EXTT12=
EXTT13=
EXTT14=
PLAYORDER=
